<?xml version="1.0" encoding="utf-8"?>
<!-- Generator: Adobe Illustrator 16.0.0, SVG Export Plug-In . SVG Version: 6.00 Build 0)  -->
<!DOCTYPE svg PUBLIC "-//W3C//DTD SVG 1.1//EN" "http://www.w3.org/Graphics/SVG/1.1/DTD/svg11.dtd">
<svg version="1.1" id="Layer_1" xmlns="http://www.w3.org/2000/svg" xmlns:xlink="http://www.w3.org/1999/xlink" x="0px" y="0px"
	 width="276px" height="276px" viewBox="0 0 276 276" enable-background="new 0 0 276 276" xml:space="preserve">
<g>
	<circle fill="#173549" cx="138.064" cy="97.046" r="59.606"/>
	<path fill="#FFFFFF" d="M134.9,120.236c-1.15,1.295-2.285,2.594-3.396,3.906c-1.074,1.277-2.166,2.504-3.273,3.678
		c-1.07,1.135-2.254,2.186-3.543,3.164c-0.67,0.443-1.355,0.816-2.061,1.117c-0.537,0.203-1.158,0.303-1.863,0.303
		s-1.26-0.268-1.662-0.805c-0.471-0.605-0.623-1.344-0.453-2.217c0.166-0.873,0.484-1.764,0.957-2.67
		c0.469-0.906,0.99-1.779,1.561-2.619s1.023-1.527,1.361-2.066c1.141-1.812,2.232-3.627,3.273-5.439
		c1.041-1.814,2.1-3.627,3.174-5.441c0.537-0.738,1.023-1.512,1.461-2.316c0.436-0.807,0.889-1.613,1.359-2.42
		c2.553-4.297,5.223-8.512,8.01-12.643s5.457-8.346,8.01-12.645c3.828-6.447,7.758-12.896,11.787-19.344
		c0.471-0.738,0.771-1.545,0.908-2.418c0.133-0.871,0.234-1.746,0.301-2.619c0-0.738-0.117-1.311-0.352-1.713
		c-0.236-0.402-0.723-0.67-1.461-0.807c-0.605-0.133-1.227-0.166-1.863-0.1c-0.641,0.066-1.227,0.168-1.764,0.301
		c-0.74,0.137-1.428,0.236-2.066,0.303c-0.639,0.068-1.326,0.102-2.064,0.102c-0.941-0.066-1.748,0.035-2.418,0.301
		c-0.672,0.27-1.176,0.908-1.512,1.916c-0.201,0.873-0.438,1.729-0.705,2.568c-0.27,0.84-0.604,1.662-1.008,2.469
		c-1.41,2.955-3.072,5.811-4.986,8.562c-1.914,2.756-3.713,5.541-5.391,8.363c-1.748,2.955-3.477,5.893-5.189,8.814
		c-1.711,2.922-3.475,5.861-5.289,8.816c-1.678,2.754-3.408,5.457-5.188,8.109c-1.779,2.654-3.477,5.391-5.088,8.213
		c-0.873,1.477-1.83,3.139-2.871,4.986c-1.042,1.848-1.949,3.762-2.721,5.742c-0.772,1.982-1.31,3.98-1.611,5.994
		c-0.303,2.016-0.151,3.896,0.453,5.643c0.469,1.209,1.259,2.217,2.367,3.023c1.108,0.805,2.301,1.275,3.576,1.41
		c0.332,0.059,4.35,0.854,7.365-0.807c1.748-1.008,3.377-2.217,4.887-3.627c1.512-1.41,2.973-2.904,4.383-4.482
		c1.412-1.578,2.754-3.207,4.031-4.887c1.275-1.678,2.551-3.291,3.828-4.836c1.41-1.814,2.836-3.678,4.281-5.592
		c1.443-1.914,2.838-3.744,4.182-5.49c0.738-0.941,1.426-1.898,2.064-2.871c0.639-0.975,1.326-1.932,2.066-2.873
		c0.402-0.537,0.834-0.998,1.209-1.461c0.432-0.531,0.717-0.945,1.119-1.494c0.24-0.422,0.457-0.705,0.795-1.176
		c0.336-0.469,0.67-0.805,1.008-1.006c-0.338,3.021-0.926,6.029-1.764,9.016c-0.84,2.99-1.629,5.93-2.367,8.816
		c-0.539,2.15-1.16,4.299-1.865,6.447c-0.705,2.15-1.627,4.199-2.77,6.146c-0.338,0.539-0.773,1.209-1.309,2.016
		c-0.539,0.805-1.145,1.561-1.814,2.266c-0.672,0.705-1.396,1.26-2.166,1.662c-0.773,0.404-1.529,0.471-2.268,0.203
		c-0.74-0.27-1.242-0.941-1.512-2.016c-0.268-1.074-0.539-2.115-0.805-3.123c-0.27-1.008-0.639-1.779-1.109-2.318
		c-0.471-0.537-1.277-0.402-2.418,0.404c-1.006,0.738-1.779,1.729-2.316,2.971c-0.539,1.244-0.639,2.469-0.303,3.678
		c0.201,0.74,0.52,1.359,0.957,1.863c0.436,0.504,0.939,0.924,1.512,1.26c0.57,0.338,5.238,2.424,11.334,0.309
		c2.336-0.811,4.5-1.723,6.449-3.201c1.947-1.477,3.691-3.139,5.238-5.152c1.543-2.016,2.785-4.053,3.727-6.203
		c1.209-2.754,2.115-5.52,2.721-8.342c0.605-2.82,1.174-5.695,1.713-8.652c0.336-1.814,0.654-3.623,0.957-5.436
		c0.303-1.814,0.688-3.625,1.158-5.438c0.201-0.738,0.453-1.443,0.756-2.115c0.303-0.67,0.621-1.375,0.957-2.115
		c0-0.064,0.102-0.316,0.303-0.754c0.201-0.436,0.385-0.891,0.555-1.361c0.166-0.469,0.316-0.906,0.453-1.309
		c0.133-0.404,0.166-0.605,0.1-0.605c-0.738,0-1.41,0.086-2.014,0.252c-0.605,0.17-1.277,0.287-2.016,0.354
		c-0.873,0.066-1.73,0.084-2.568,0.051c-0.842-0.033-1.697,0.084-2.568,0.352c-0.875,0.27-1.562,0.656-2.066,1.16
		c-0.504,0.502-1.025,1.125-1.562,1.863c-1.275,1.68-2.469,3.375-3.576,5.088c-1.109,1.713-2.266,3.408-3.475,5.088
		c-1.412,1.947-2.822,3.879-4.232,5.793c-0.082,0.109-0.168,0.221-0.252,0.33"/>
</g>
<g>
	<g>
		<g>
			<path fill="#919191" d="M215.009,235.788h-0.959l6.727-8.376l-7.127-8.377h0.962l7.277,8.377L215.009,235.788z"/>
		</g>
		<g>
			<path fill="#919191" d="M64.376,219.263h0.935l-6.545,8.148l6.934,8.15h-0.935l-7.081-8.15L64.376,219.263z"/>
		</g>
		<g>
			
				<text transform="matrix(1 0 0 1 68.4277 235.7891)" fill="#919191" font-family="'RobotoCondensed-LightItalic'" font-size="24.1646">/web developer</text>
		</g>
	</g>
	<g>
		<path fill="#173549" d="M48.859,169.615c0.358,0.066,0.597,0.196,0.711,0.393c0.113,0.195,0.172,0.475,0.172,0.833
			c-0.033,0.425-0.082,0.85-0.148,1.274c-0.065,0.424-0.212,0.816-0.44,1.176c-1.96,3.136-3.871,6.271-5.732,9.408
			c-1.243,2.091-2.541,4.141-3.896,6.148c-1.356,2.01-2.655,4.061-3.896,6.15c-0.229,0.393-0.448,0.783-0.661,1.176
			c-0.212,0.393-0.45,0.768-0.711,1.127c-0.522,0.883-1.037,1.764-1.543,2.646c-0.507,0.882-1.037,1.764-1.593,2.646
			c-0.163,0.262-0.384,0.596-0.662,1.004c-0.276,0.408-0.53,0.833-0.758,1.273c-0.23,0.441-0.386,0.874-0.466,1.3
			c-0.082,0.424-0.01,0.783,0.22,1.077c0.195,0.262,0.466,0.392,0.809,0.392c0.344,0,0.646-0.049,0.906-0.146
			c0.687-0.294,1.339-0.727,1.961-1.299c0.619-0.57,1.192-1.118,1.715-1.642c0.783-0.85,1.51-1.739,2.18-2.67
			c0.669-0.932,1.331-1.887,1.985-2.867c0.064-0.098,0.236-0.383,0.515-0.857c0.277-0.473,0.587-0.922,0.93-1.348
			c0.343-0.424,0.671-0.727,0.98-0.906s0.515-0.008,0.613,0.515c0.064,0.294,0.023,0.604-0.122,0.931
			c-0.148,0.327-0.328,0.662-0.54,1.005c-0.213,0.343-0.45,0.67-0.711,0.979c-0.262,0.312-0.458,0.564-0.587,0.76
			c-0.949,1.405-1.944,2.769-2.989,4.092c-1.046,1.323-2.238,2.523-3.577,3.602c-0.883,0.752-1.723,1.405-2.523,1.96
			c-0.801,0.557-1.773,0.997-2.915,1.322c-0.23,0.066-0.442,0.107-0.638,0.123c-0.196,0.018-0.409,0.025-0.637,0.025
			c-0.622-0.065-1.201-0.295-1.74-0.687c-0.538-0.392-0.924-0.882-1.151-1.47c-0.294-0.85-0.367-1.765-0.221-2.744
			c0.148-0.98,0.409-1.952,0.785-2.916c0.374-0.963,0.815-1.894,1.321-2.793c0.507-0.897,0.973-1.706,1.397-2.425
			c0.785-1.373,1.609-2.703,2.475-3.994c0.865-1.29,1.707-2.604,2.523-3.944c0.883-1.438,1.74-2.866,2.572-4.288
			c0.834-1.42,1.674-2.85,2.523-4.287c0.816-1.372,1.691-2.728,2.622-4.066c0.932-1.34,1.738-2.728,2.425-4.166
			c0.196-0.392,0.36-0.791,0.49-1.2c0.131-0.408,0.246-0.825,0.344-1.249c0.163-0.49,0.407-0.801,0.734-0.932
			c0.325-0.131,0.719-0.179,1.177-0.146c0.358,0,0.693-0.016,1.004-0.049c0.31-0.033,0.645-0.082,1.005-0.147
			c0.262-0.065,0.546-0.114,0.857-0.147C48.263,169.535,48.565,169.551,48.859,169.615z"/>
		<path fill="#173549" d="M41.627,211.218c-0.851-0.065-1.634-0.311-2.352-0.736c-0.948-0.555-1.586-1.256-1.911-2.106
			c-0.327-0.849-0.466-1.756-0.417-2.72c0.049-0.963,0.228-1.927,0.539-2.891c0.311-0.964,0.646-1.821,1.004-2.573
			c0.883-2.024,1.985-3.911,3.309-5.659c1.323-1.747,2.915-3.274,4.776-4.581c1.144-0.816,2.393-1.511,3.749-2.083
			c1.356-0.571,2.735-0.938,4.141-1.103c1.535-0.162,2.531,0.18,2.989,1.029c0.49,0.882,0.701,1.739,0.637,2.572
			c-0.065,0.833-0.317,1.617-0.76,2.353c-0.44,0.734-1.028,1.421-1.764,2.058c-0.734,0.637-1.52,1.225-2.352,1.764
			c-0.834,0.539-1.674,1.005-2.523,1.396c-0.85,0.393-1.602,0.719-2.255,0.98c-0.752,0.294-1.43,0.556-2.034,0.784
			c-0.604,0.229-1.134,0.507-1.592,0.833s-0.857,0.743-1.2,1.25c-0.343,0.506-0.63,1.168-0.857,1.984
			c-0.164,0.522-0.237,1.037-0.221,1.543c0.016,0.507,0.131,0.973,0.344,1.396c0.212,0.425,0.514,0.759,0.905,1.005
			c0.393,0.244,0.914,0.367,1.569,0.367c0.619,0,1.224-0.114,1.812-0.344c0.589-0.228,1.145-0.521,1.666-0.881
			c0.522-0.359,1.021-0.76,1.495-1.201s0.906-0.89,1.3-1.347c0.946-1.046,1.868-2.123,2.767-3.234
			c0.898-1.11,1.74-2.238,2.523-3.381c0.066-0.098,0.189-0.318,0.368-0.662c0.18-0.343,0.368-0.652,0.563-0.931
			c0.196-0.277,0.392-0.44,0.588-0.49c0.197-0.049,0.344,0.155,0.44,0.612c0.131,0.557-0.008,1.119-0.415,1.691
			c-0.409,0.571-0.777,1.053-1.103,1.445c-0.85,1.045-1.676,2.123-2.475,3.234c-0.801,1.109-1.643,2.172-2.523,3.185
			c-0.883,1.013-1.854,1.943-2.915,2.793c-1.062,0.85-2.247,1.535-3.554,2.058c-0.687,0.263-1.38,0.45-2.082,0.563
			C43.104,211.307,42.378,211.315,41.627,211.218z M45.743,198.281c0.261-0.065,0.546-0.18,0.857-0.344
			c0.31-0.162,0.497-0.261,0.562-0.294c0.947-0.555,1.838-1.225,2.672-2.009c0.832-0.783,1.574-1.6,2.229-2.449
			c0.392-0.49,0.768-1.046,1.126-1.666c0.36-0.621,0.556-1.258,0.589-1.912c0.031-0.261-0.041-0.514-0.221-0.76
			c-0.18-0.244-0.417-0.334-0.711-0.269c-0.392,0.098-0.783,0.335-1.176,0.71c-0.392,0.376-0.719,0.695-0.979,0.956
			c-0.197,0.229-0.392,0.449-0.589,0.661c-0.196,0.213-0.376,0.416-0.539,0.613c-0.522,0.653-1.029,1.298-1.519,1.935
			c-0.49,0.638-0.964,1.299-1.421,1.985c-0.065,0.098-0.204,0.311-0.416,0.637c-0.213,0.326-0.409,0.67-0.589,1.029
			s-0.286,0.661-0.317,0.906C45.27,198.256,45.416,198.348,45.743,198.281z"/>
		<path fill="#173549" d="M55.807,211.069l-0.098-0.049c-0.588-0.195-1.054-0.514-1.396-0.955s-0.597-0.938-0.759-1.494
			c-0.165-0.555-0.253-1.135-0.271-1.74c-0.016-0.604,0.008-1.167,0.074-1.689c0.098-0.784,0.276-1.601,0.539-2.45
			c0.359-1.078,0.833-2.123,1.421-3.137c0.883-1.47,1.83-2.873,2.842-4.214c1.013-1.339,2.172-2.58,3.479-3.724
			c0.358-0.326,0.734-0.637,1.126-0.932c0.393-0.293,0.801-0.588,1.226-0.881c0.62-0.393,1.249-0.768,1.887-1.128
			c0.637-0.358,1.315-0.669,2.034-0.931c0.587-0.229,1.183-0.457,1.787-0.686s1.233-0.344,1.888-0.344
			c0.293,0.033,0.595,0.066,0.906,0.098c0.31,0.033,0.612,0.099,0.906,0.196c0.458,0.131,0.775,0.392,0.955,0.784
			c0.179,0.392,0.399,0.768,0.662,1.127c-0.033-0.064,0.041-0.236,0.221-0.515c0.179-0.276,0.302-0.448,0.368-0.515
			c0.194-0.326,0.489-0.57,0.881-0.734c0.49-0.196,1.036-0.277,1.643-0.245c0.604,0.032,1.183,0.032,1.738,0
			c0.261,0,0.522-0.057,0.785-0.172c0.261-0.114,0.521-0.089,0.783,0.073c0.163,0.099,0.261,0.229,0.294,0.393
			c0.031,0.164,0.016,0.318-0.049,0.465c-0.066,0.147-0.147,0.303-0.245,0.467c-0.098,0.163-0.18,0.293-0.245,0.391
			c-1.014,1.504-1.961,3.031-2.842,4.582c-0.883,1.552-1.78,3.111-2.694,4.68c-0.264,0.457-0.524,0.915-0.785,1.372
			c-0.262,0.458-0.538,0.915-0.833,1.372c-0.588,0.947-1.209,1.928-1.862,2.939c-0.652,1.014-1.11,2.091-1.372,3.234
			c-0.065,0.196-0.098,0.425-0.098,0.687s0.131,0.457,0.393,0.588c0.196,0.098,0.425,0.105,0.686,0.024s0.522-0.212,0.785-0.392
			c0.26-0.18,0.505-0.368,0.734-0.564c0.229-0.195,0.407-0.343,0.538-0.44c0.719-0.687,1.405-1.372,2.06-2.059
			c0.652-0.686,1.306-1.404,1.958-2.156c0.556-0.652,1.096-1.306,1.618-1.959c0.521-0.654,1.013-1.34,1.471-2.059
			c0.064-0.098,0.154-0.236,0.269-0.416c0.113-0.18,0.246-0.326,0.392-0.441c0.148-0.114,0.295-0.18,0.44-0.195
			c0.148-0.017,0.287,0.072,0.417,0.27c0.098,0.163,0.123,0.335,0.074,0.514c-0.049,0.18-0.131,0.359-0.245,0.539
			c-0.115,0.18-0.237,0.344-0.367,0.49c-0.132,0.146-0.245,0.27-0.343,0.367c-0.327,0.393-0.637,0.801-0.931,1.225
			c-0.295,0.426-0.622,0.834-0.98,1.226c-0.229,0.327-0.466,0.638-0.711,0.931c-0.246,0.295-0.499,0.588-0.76,0.883
			c-0.587,0.686-1.184,1.364-1.787,2.032c-0.606,0.671-1.218,1.332-1.838,1.985c-0.427,0.458-0.956,0.955-1.594,1.495
			c-0.637,0.538-1.315,0.979-2.032,1.322c-0.72,0.344-1.438,0.531-2.157,0.563c-0.719,0.033-1.372-0.245-1.96-0.833
			c-0.556-0.521-0.906-1.159-1.053-1.91c-0.147-0.752-0.14-1.486,0.023-2.206c0.066-0.163,0.131-0.325,0.197-0.489
			c0.064-0.164,0.08-0.326,0.049-0.49c-0.164,0.033-0.318,0.139-0.466,0.318c-0.146,0.18-0.287,0.336-0.417,0.465
			c-0.262,0.229-0.497,0.459-0.71,0.687c-0.214,0.229-0.434,0.474-0.662,0.735c-1.013,1.078-2.155,1.977-3.43,2.695
			c-0.654,0.392-1.389,0.693-2.205,0.906C57.342,211.258,56.559,211.267,55.807,211.069z M60.315,207.64
			c0.883-0.424,1.674-0.971,2.376-1.641c0.703-0.67,1.363-1.38,1.985-2.132c1.044-1.307,2.04-2.638,2.989-3.994
			c0.946-1.354,1.829-2.768,2.646-4.238c0.359-0.652,0.718-1.307,1.078-1.96c0.358-0.653,0.668-1.339,0.931-2.058
			c0.131-0.424,0.236-0.883,0.318-1.372c0.082-0.49-0.023-0.931-0.318-1.323c-0.359-0.457-0.833-0.62-1.42-0.49
			c-0.589,0.131-1.095,0.312-1.52,0.539c-1.177,0.654-2.229,1.553-3.161,2.695c-0.932,1.144-1.789,2.254-2.572,3.332
			c-0.458,0.588-0.883,1.193-1.274,1.812c-0.392,0.621-0.801,1.242-1.226,1.862c-0.425,0.621-0.816,1.258-1.175,1.911
			c-0.36,0.654-0.719,1.323-1.078,2.01c-0.132,0.293-0.286,0.62-0.465,0.979c-0.182,0.36-0.336,0.736-0.466,1.128
			c-0.131,0.393-0.221,0.776-0.27,1.151c-0.05,0.376,0.007,0.728,0.172,1.054c0.26,0.556,0.604,0.874,1.028,0.955
			C59.318,207.942,59.792,207.868,60.315,207.64z"/>
		<path fill="#173549" d="M91.058,211.806c-0.392-0.033-0.775-0.099-1.151-0.196c-0.376-0.099-0.694-0.263-0.955-0.49
			c-0.425-0.392-0.711-0.815-0.857-1.274c-0.147-0.457-0.212-0.938-0.196-1.445c0.017-0.506,0.099-1.004,0.245-1.494
			s0.317-0.963,0.515-1.422c0.555-1.208,1.183-2.358,1.886-3.454c0.702-1.094,1.429-2.18,2.181-3.258
			c0.425-0.654,0.85-1.307,1.274-1.961c0.425-0.652,0.85-1.306,1.274-1.959c0.195-0.295,0.44-0.621,0.734-0.98
			c0.295-0.359,0.571-0.734,0.834-1.127c0.262-0.393,0.456-0.792,0.587-1.201c0.131-0.408,0.115-0.791-0.049-1.15
			c-0.163-0.327-0.399-0.49-0.71-0.49s-0.637,0.073-0.979,0.22c-0.343,0.147-0.68,0.335-1.006,0.563
			c-0.327,0.229-0.555,0.393-0.686,0.49c-0.621,0.458-1.192,0.955-1.715,1.494s-1.028,1.087-1.52,1.643l-1.616,1.91
			c-1.145,1.307-2.148,2.688-3.014,4.141c-0.865,1.454-1.773,2.916-2.721,4.386c-0.619,0.948-1.241,1.879-1.86,2.793
			c-0.622,0.915-1.259,1.812-1.912,2.695c-0.163,0.262-0.36,0.482-0.588,0.661c-0.229,0.181-0.507,0.286-0.832,0.319
			c-0.327,0.031-0.646,0.04-0.957,0.023c-0.31-0.017-0.629-0.023-0.955-0.023c-1.046,0-1.707-0.008-1.983-0.025
			c-0.278-0.016-0.466-0.057-0.564-0.123c-0.164-0.195-0.236-0.457-0.221-0.783c0.018-0.326,0.155-0.637,0.417-0.932
			c1.045-1.24,1.968-2.572,2.769-3.993c0.8-1.421,1.641-2.817,2.523-4.189c0.522-0.85,1.029-1.682,1.519-2.499
			c0.49-0.815,0.997-1.633,1.52-2.45c0.522-0.75,1.021-1.526,1.494-2.327c0.474-0.8,0.973-1.593,1.495-2.376
			c0.163-0.262,0.325-0.531,0.489-0.81c0.163-0.276,0.294-0.563,0.394-0.856c0.064-0.197,0.113-0.457,0.146-0.785
			c0.032-0.325,0.098-0.637,0.197-0.93c0.098-0.295,0.228-0.54,0.392-0.736c0.162-0.195,0.423-0.244,0.783-0.146
			c0.066,0.033,0.205,0.049,0.417,0.049c0.213,0,0.448-0.016,0.711-0.049c0.687-0.064,1.24-0.114,1.665-0.146
			c0.425-0.033,0.752-0.049,0.979-0.049c0.229,0,0.394,0.023,0.491,0.072s0.18,0.107,0.245,0.172
			c0.62,0.686,0.505,1.781-0.343,3.283c-0.099,0.164-0.165,0.286-0.196,0.367c-0.033,0.082-0.066,0.156-0.098,0.221l-0.049,0.098
			c0.098-0.195,0.284-0.383,0.563-0.563c0.276-0.179,0.497-0.351,0.66-0.515c0.262-0.195,0.507-0.383,0.734-0.562
			c0.229-0.18,0.474-0.352,0.736-0.516c0.653-0.424,1.323-0.799,2.01-1.127c0.686-0.325,1.403-0.57,2.155-0.734
			c0.49-0.098,1.012-0.123,1.568-0.074c0.555,0.05,1.069,0.181,1.543,0.393c0.474,0.213,0.873,0.515,1.2,0.906
			c0.326,0.393,0.507,0.899,0.54,1.52c0.064,1.144-0.123,2.222-0.564,3.234c-0.44,1.012-0.973,1.959-1.593,2.842
			c-0.686,0.979-1.38,1.952-2.083,2.916c-0.701,0.963-1.38,1.936-2.032,2.915c-0.948,1.339-1.781,2.712-2.5,4.115
			c-0.064,0.164-0.171,0.36-0.317,0.589c-0.148,0.229-0.27,0.474-0.368,0.735c-0.098,0.262-0.146,0.506-0.146,0.734
			s0.098,0.408,0.294,0.539c0.358,0.229,0.792,0.245,1.298,0.049c0.507-0.195,0.924-0.375,1.249-0.539
			c1.047-0.588,1.969-1.355,2.77-2.303s1.576-1.878,2.328-2.793c0.358-0.392,0.686-0.792,0.98-1.2
			c0.292-0.408,0.586-0.842,0.881-1.299c0.294-0.424,0.562-0.857,0.809-1.299c0.245-0.441,0.547-0.841,0.906-1.2
			c0.163-0.163,0.376-0.286,0.637-0.368c0.261-0.081,0.458,0.009,0.589,0.27c0.163,0.36,0.196,0.711,0.097,1.055
			c-0.097,0.342-0.261,0.686-0.489,1.028c-0.229,0.343-0.473,0.67-0.734,0.979c-0.263,0.312-0.49,0.58-0.686,0.809
			c-1.079,1.242-2.149,2.508-3.211,3.798c-1.062,1.291-2.229,2.459-3.504,3.504c-0.914,0.752-1.968,1.404-3.159,1.959
			C93.467,211.626,92.266,211.87,91.058,211.806z"/>
		<path fill="#173549" d="M104.993,211.218c-1.438-0.262-2.369-0.914-2.792-1.961c-0.425-1.045-0.548-2.213-0.368-3.503
			c0.179-1.291,0.522-2.572,1.028-3.847c0.507-1.274,0.973-2.304,1.397-3.087c1.045-1.895,2.377-3.658,3.992-5.293
			c1.618-1.633,3.309-3.054,5.072-4.263c0.522-0.358,1.144-0.735,1.863-1.126c0.717-0.393,1.461-0.711,2.229-0.957
			c0.767-0.244,1.536-0.375,2.304-0.391c0.766-0.017,1.461,0.188,2.081,0.611c0.294,0.196,0.54,0.36,0.736,0.49
			c0.195,0.131,0.375,0.196,0.538,0.196c0.164,0,0.327-0.073,0.491-0.221c0.162-0.146,0.374-0.384,0.637-0.71
			c0.456-0.588,0.865-1.217,1.224-1.887c0.36-0.67,0.72-1.331,1.08-1.984c0.586-1.045,1.183-2.099,1.787-3.16
			c0.604-1.062,1.218-2.115,1.837-3.161c0.327-0.555,0.662-1.095,1.006-1.616c0.343-0.523,0.645-1.078,0.906-1.666
			c0.13-0.262,0.235-0.531,0.319-0.809c0.08-0.277,0.153-0.58,0.22-0.907c0.031-0.228,0.041-0.481,0.023-0.76
			c-0.016-0.276,0.057-0.515,0.221-0.71c0.228-0.262,0.507-0.433,0.834-0.516c0.325-0.08,0.678-0.129,1.054-0.146
			c0.374-0.016,0.742-0.008,1.102,0.025c0.36,0.033,0.686,0.017,0.979-0.05c0.491-0.098,0.965-0.163,1.423-0.196
			c0.456-0.031,0.75,0.295,0.881,0.98c0.099,0.49,0.082,0.98-0.049,1.47c-0.131,0.49-0.318,0.973-0.563,1.446
			s-0.515,0.923-0.809,1.348c-0.294,0.424-0.588,0.832-0.883,1.225c-0.652,0.915-1.257,1.861-1.812,2.842
			c-0.555,0.98-1.11,1.96-1.666,2.94c-0.915,1.731-1.854,3.422-2.817,5.071c-0.964,1.649-1.968,3.291-3.014,4.924
			c-1.045,1.666-2.025,3.342-2.939,5.023c-0.915,1.683-1.847,3.356-2.794,5.022c-0.392,0.653-0.752,1.315-1.077,1.984
			c-0.327,0.67-0.622,1.364-0.883,2.082c-0.164,0.393-0.261,0.785-0.293,1.176c0,0.328,0.121,0.508,0.367,0.539
			c0.245,0.033,0.497,0.018,0.76-0.049c0.75-0.261,1.403-0.661,1.96-1.2c0.556-0.539,1.109-1.086,1.666-1.642
			c0.556-0.588,1.118-1.167,1.689-1.739c0.571-0.571,1.136-1.184,1.691-1.838c0.392-0.457,0.768-0.938,1.126-1.445
			c0.36-0.506,0.687-1.037,0.98-1.592c0.164-0.262,0.31-0.54,0.442-0.834c0.129-0.294,0.325-0.555,0.587-0.783
			c0.196-0.164,0.425-0.245,0.686-0.245s0.409,0.18,0.442,0.538c0.031,0.196,0,0.385-0.1,0.564c-0.098,0.18-0.195,0.352-0.294,0.514
			c-0.261,0.523-0.563,1.038-0.906,1.544c-0.343,0.507-0.693,0.989-1.053,1.446c-1.21,1.567-2.499,3.078-3.871,4.532
			c-1.372,1.453-2.81,2.817-4.312,4.091c-0.36,0.327-0.742,0.597-1.151,0.81c-0.409,0.212-0.857,0.367-1.347,0.465
			c-0.557,0.098-1.161,0.131-1.814,0.098c-0.652-0.031-1.208-0.277-1.666-0.734c-0.327-0.326-0.555-0.719-0.686-1.176
			c-0.131-0.458-0.195-0.915-0.195-1.373c0-0.064,0.016-0.236,0.049-0.514c0.031-0.277,0.064-0.564,0.098-0.857
			c0.031-0.295,0.082-0.687,0.146-1.176c-0.098,0-0.18,0.064-0.244,0.195c-0.033,0.065-0.114,0.172-0.245,0.318
			c-0.131,0.147-0.278,0.303-0.44,0.465c-0.491,0.557-0.989,1.104-1.495,1.643s-1.046,1.045-1.617,1.519
			c-0.572,0.474-1.177,0.882-1.813,1.226c-0.636,0.343-1.347,0.58-2.13,0.71C106.25,211.267,105.646,211.282,104.993,211.218z
			 M107.297,208.375c1.044-0.358,1.952-0.938,2.72-1.739c0.766-0.801,1.51-1.625,2.229-2.475c0.979-1.177,1.927-2.384,2.841-3.626
			c0.914-1.241,1.748-2.548,2.5-3.92c0.229-0.393,0.481-0.834,0.76-1.323c0.277-0.49,0.53-0.996,0.759-1.519
			c0.228-0.522,0.416-1.045,0.564-1.568c0.146-0.522,0.203-1.029,0.171-1.52c-0.032-0.359-0.188-0.693-0.465-1.004
			c-0.279-0.311-0.614-0.498-1.006-0.564c-0.555-0.031-1.118,0.107-1.689,0.417c-0.572,0.312-1.12,0.694-1.643,1.151
			c-0.522,0.458-1.013,0.939-1.469,1.445c-0.458,0.508-0.85,0.939-1.177,1.299c-0.914,1.014-1.771,2.051-2.572,3.111
			c-0.801,1.062-1.593,2.132-2.378,3.21c-0.686,0.948-1.33,1.96-1.935,3.038s-0.955,2.238-1.053,3.479
			c-0.099,0.881,0.154,1.527,0.759,1.936c0.604,0.408,1.282,0.465,2.034,0.171H107.297z"/>
		<path fill="#173549" d="M118.831,210.728c-0.196-0.457-0.13-0.85,0.195-1.177c0.327-0.325,0.67-0.588,1.029-0.784
			c0.425-0.261,0.857-0.514,1.299-0.759c0.44-0.245,0.873-0.53,1.298-0.858c0.883-0.686,1.691-1.461,2.426-2.327
			c0.735-0.865,1.413-1.771,2.033-2.719c0.49-0.719,0.987-1.413,1.494-2.083c0.507-0.669,1.006-1.364,1.495-2.083
			c0.49-0.751,0.964-1.494,1.422-2.229c0.456-0.735,0.93-1.479,1.421-2.23c0.588-0.914,1.11-1.854,1.568-2.816
			c0.456-0.964,0.963-1.903,1.518-2.818c0.262-0.457,0.548-0.8,0.857-1.029c0.311-0.228,0.728-0.162,1.249,0.196
			c1.145,0.752,2.321,1.062,3.529,0.931c1.208-0.13,2.434-0.375,3.675-0.734c0.358-0.098,0.702-0.082,1.029,0.049
			c0.325,0.131,0.474,0.426,0.44,0.883s-0.244,0.89-0.636,1.298c-0.394,0.409-0.719,0.776-0.98,1.103
			c-0.393,0.458-0.769,0.906-1.128,1.348c-0.36,0.441-0.719,0.891-1.077,1.348c-1.438,1.928-2.729,3.871-3.872,5.83
			c-0.358,0.589-0.693,1.177-1.004,1.765c-0.312,0.588-0.596,1.176-0.857,1.765c-0.098,0.163-0.245,0.481-0.44,0.955
			c-0.196,0.474-0.36,0.972-0.49,1.494c-0.131,0.522-0.189,0.997-0.172,1.421c0.016,0.425,0.203,0.686,0.563,0.784
			c0.358,0.099,0.711,0.091,1.054-0.024c0.343-0.114,0.678-0.277,1.004-0.49c0.327-0.212,0.629-0.457,0.907-0.734
			c0.277-0.277,0.53-0.531,0.759-0.76c1.013-1.046,1.937-2.173,2.769-3.382c0.834-1.207,1.674-2.384,2.523-3.527
			c0.164-0.229,0.384-0.539,0.662-0.932c0.277-0.392,0.579-0.57,0.906-0.539c0.393,0.033,0.563,0.221,0.515,0.564
			c-0.049,0.343-0.188,0.719-0.417,1.127c-0.228,0.408-0.481,0.792-0.76,1.151c-0.276,0.36-0.464,0.588-0.563,0.686
			c-0.457,0.588-0.914,1.169-1.371,1.739c-0.458,0.572-0.914,1.136-1.372,1.691c-0.36,0.49-0.734,0.988-1.127,1.494
			c-0.393,0.507-0.784,0.988-1.177,1.446c-0.849,0.979-1.788,1.886-2.817,2.719c-1.028,0.833-2.213,1.381-3.552,1.642
			c-0.458,0.065-0.924,0.082-1.397,0.049c-0.474-0.032-0.906-0.13-1.298-0.294c-0.392-0.163-0.744-0.399-1.054-0.711
			c-0.311-0.31-0.53-0.71-0.661-1.2c-0.163-0.588-0.229-1.167-0.196-1.739c0.033-0.571,0.13-1.135,0.294-1.69
			c0.163-0.555,0.358-1.11,0.588-1.666c0.229-0.555,0.474-1.078,0.735-1.568c0.719-1.47,1.648-2.842,2.792-4.115
			c1.144-1.274,2.288-2.482,3.432-3.627c0.195-0.195,0.497-0.441,0.906-0.734c0.407-0.295,0.66-0.571,0.76-0.833
			c0.098-0.196,0.105-0.319,0.023-0.368s-0.195-0.073-0.343-0.073c-0.146,0-0.311,0.017-0.489,0.049
			c-0.181,0.033-0.319,0.05-0.417,0.05c-0.327,0-0.638-0.082-0.932-0.246c-0.294-0.162-0.604-0.277-0.932-0.342
			c-0.457-0.066-0.807,0.032-1.052,0.293c-0.246,0.262-0.483,0.572-0.711,0.932c-0.295,0.457-0.589,0.931-0.882,1.42
			c-0.294,0.49-0.588,0.98-0.882,1.471c-0.622,1.046-1.249,2.066-1.887,3.062c-0.637,0.997-1.315,1.984-2.034,2.965
			c-0.392,0.556-0.801,1.095-1.224,1.617c-0.427,0.522-0.867,1.046-1.323,1.567c-0.132,0.131-0.376,0.409-0.736,0.833
			c-0.358,0.425-0.791,0.899-1.298,1.421c-0.507,0.523-1.054,1.046-1.641,1.568c-0.589,0.523-1.146,0.964-1.666,1.323
			c-0.522,0.36-0.998,0.571-1.423,0.637C119.289,211.233,118.995,211.087,118.831,210.728z"/>
		<path fill="#173549" d="M147.369,210.972c-1.013-0.261-1.911-0.767-2.694-1.519c-0.785-0.751-1.21-1.683-1.274-2.794
			c-0.033-0.619,0-1.265,0.098-1.935s0.228-1.314,0.392-1.936c0.228-1.11,0.621-2.221,1.177-3.332c1.11-2.188,2.58-4.165,4.409-5.93
			c1.012-0.947,2.025-1.812,3.038-2.597c0.62-0.489,1.282-0.963,1.985-1.421c0.702-0.457,1.429-0.865,2.181-1.225
			c0.75-0.359,1.519-0.653,2.303-0.883c0.784-0.228,1.583-0.358,2.401-0.392c0.914-0.032,1.812,0.099,2.694,0.392
			c0.751,0.295,1.372,0.817,1.861,1.568c0.687,1.078,0.965,2.189,0.834,3.332c-0.131,1.145-0.36,2.287-0.686,3.43
			c-0.622,2.287-1.617,4.477-2.989,6.566c-1.372,2.092-3.038,3.839-4.998,5.243c-1.21,0.85-2.533,1.617-3.97,2.303
			c-1.438,0.687-2.892,1.127-4.36,1.323c-0.393,0.033-0.793,0.042-1.201,0.024C148.161,211.177,147.761,211.103,147.369,210.972z
			 M151.437,208.425c1.208-0.523,2.262-1.275,3.16-2.254c0.898-0.98,1.707-1.993,2.426-3.039c0.262-0.358,0.497-0.718,0.71-1.078
			c0.212-0.358,0.433-0.718,0.662-1.078c0.556-0.882,1.069-1.796,1.543-2.743s0.922-1.895,1.347-2.842
			c0.262-0.688,0.507-1.34,0.736-1.961c0.229-0.62,0.375-1.307,0.44-2.059c0.032-0.424-0.024-0.889-0.171-1.396
			c-0.148-0.507-0.45-0.841-0.906-1.005c-0.589-0.163-1.161-0.064-1.715,0.294c-0.557,0.36-1.029,0.72-1.422,1.078
			c-0.458,0.458-0.914,0.891-1.372,1.299c-0.458,0.409-0.881,0.841-1.274,1.298c-0.85,0.915-1.633,1.879-2.353,2.892
			c-0.719,1.013-1.387,2.042-2.009,3.087c-0.555,0.915-1.062,1.854-1.518,2.817c-0.458,0.964-0.883,1.936-1.274,2.915
			c-0.197,0.491-0.368,1.095-0.515,1.813s-0.041,1.323,0.317,1.813c0.229,0.294,0.556,0.474,0.98,0.538
			c0.425,0.066,0.801,0.066,1.128,0C150.685,208.718,151.044,208.588,151.437,208.425z"/>
		<path fill="#173549" d="M167.479,211.168h-0.049c-0.327-0.065-0.654-0.139-0.979-0.22c-0.327-0.082-0.63-0.204-0.908-0.368
			c-0.276-0.163-0.522-0.368-0.734-0.612c-0.213-0.245-0.366-0.547-0.466-0.906c-0.164-0.588-0.115-1.184,0.147-1.789
			c0.262-0.604,0.638-1.086,1.127-1.445c0.556-0.393,0.947-0.457,1.177-0.196c0.229,0.263,0.407,0.638,0.538,1.128
			c0.131,0.489,0.261,0.996,0.392,1.519s0.376,0.85,0.736,0.979c0.358,0.131,0.727,0.098,1.102-0.098
			c0.376-0.196,0.727-0.465,1.054-0.809c0.325-0.343,0.62-0.711,0.883-1.103c0.261-0.392,0.474-0.718,0.637-0.979
			c0.556-0.947,1.004-1.944,1.347-2.989s0.646-2.09,0.906-3.137c0.36-1.404,0.742-2.833,1.151-4.287
			c0.409-1.453,0.694-2.916,0.857-4.385c-0.163,0.098-0.325,0.261-0.489,0.489c-0.163,0.229-0.278,0.425-0.343,0.588
			c-0.196,0.262-0.392,0.499-0.588,0.71c-0.195,0.213-0.392,0.45-0.589,0.711c-0.358,0.458-0.693,0.924-1.004,1.396
			c-0.312,0.475-0.645,0.939-1.005,1.396c-0.653,0.85-1.331,1.74-2.032,2.671c-0.704,0.931-1.397,1.837-2.083,2.72
			c-0.622,0.752-1.241,1.535-1.861,2.352c-0.622,0.817-1.274,1.61-1.96,2.376c-0.687,0.769-1.397,1.495-2.132,2.182
			c-0.735,0.686-1.528,1.273-2.378,1.764c-0.194,0.164-0.457,0.294-0.783,0.393c-0.327,0.098-0.621,0.08-0.883-0.05
			c-0.163-0.099-0.261-0.228-0.294-0.392s-0.033-0.344,0-0.539c0.033-0.196,0.09-0.384,0.172-0.563s0.155-0.335,0.22-0.466
			c0.164-0.294,0.394-0.506,0.688-0.637c0.293-0.131,0.587-0.277,0.881-0.441c0.326-0.163,0.63-0.334,0.906-0.514
			c0.279-0.18,0.548-0.385,0.809-0.613c0.653-0.49,1.251-1.021,1.789-1.593c0.54-0.57,1.07-1.167,1.592-1.788
			c0.72-0.849,1.454-1.69,2.206-2.523c0.75-0.833,1.47-1.674,2.155-2.523c0.752-0.915,1.471-1.837,2.157-2.769
			c0.686-0.932,1.371-1.869,2.058-2.817c0.588-0.816,1.151-1.642,1.691-2.476c0.538-0.832,1.118-1.656,1.738-2.474
			c0.261-0.358,0.514-0.661,0.76-0.907c0.245-0.244,0.58-0.432,1.005-0.562c0.424-0.131,0.841-0.188,1.249-0.172
			c0.408,0.018,0.824,0.008,1.25-0.024c0.358-0.032,0.686-0.09,0.979-0.171c0.294-0.082,0.62-0.123,0.98-0.123
			c0.031,0,0.016,0.098-0.049,0.294c-0.066,0.196-0.141,0.409-0.221,0.637c-0.081,0.229-0.171,0.45-0.271,0.661
			c-0.098,0.213-0.146,0.336-0.146,0.368c-0.163,0.359-0.319,0.703-0.465,1.028c-0.146,0.328-0.27,0.67-0.368,1.029
			c-0.229,0.883-0.416,1.764-0.563,2.646c-0.146,0.882-0.303,1.764-0.466,2.646c-0.261,1.438-0.538,2.842-0.832,4.213
			c-0.294,1.372-0.735,2.729-1.323,4.067c-0.458,1.046-1.062,2.059-1.814,3.038c-0.75,0.979-1.6,1.83-2.547,2.548
			c-0.948,0.719-1.993,1.267-3.137,1.642C169.912,211.274,168.721,211.364,167.479,211.168z"/>
		<path fill="#173549" d="M180.925,211.021c-0.556-0.195-1.047-0.588-1.47-1.176c-0.294-0.457-0.491-0.987-0.589-1.592
			c-0.097-0.604-0.13-1.168-0.097-1.691c0.129-0.979,0.399-1.927,0.809-2.842c0.407-0.914,0.84-1.796,1.298-2.646
			c0.783-1.471,1.633-2.883,2.549-4.238c0.914-1.355,1.795-2.752,2.646-4.189c0.358-0.556,0.71-1.119,1.053-1.691
			c0.343-0.57,0.548-1.2,0.613-1.887c0.031-0.228,0.072-0.465,0.121-0.71c0.051-0.245,0.156-0.448,0.319-0.612
			c0.359-0.359,0.906-0.571,1.641-0.637c0.736-0.065,1.331-0.115,1.789-0.147c0.229-0.032,0.491-0.057,0.785-0.073
			c0.293-0.016,0.571,0,0.832,0.049c0.262,0.049,0.489,0.146,0.687,0.294c0.196,0.147,0.31,0.384,0.343,0.71
			c0.033,0.426-0.023,0.858-0.172,1.299c-0.146,0.441-0.343,0.866-0.588,1.273c-0.244,0.41-0.515,0.817-0.809,1.226
			c-0.293,0.409-0.538,0.776-0.735,1.103c-0.946,1.471-1.878,2.939-2.792,4.41c-0.916,1.47-1.814,2.973-2.695,4.508
			c-0.065,0.131-0.204,0.367-0.417,0.711c-0.212,0.343-0.44,0.734-0.686,1.176s-0.483,0.898-0.711,1.372
			c-0.229,0.475-0.384,0.915-0.466,1.323c-0.082,0.409-0.064,0.743,0.051,1.005c0.113,0.262,0.366,0.391,0.758,0.391
			c0.425,0.033,0.842-0.057,1.251-0.27c0.407-0.211,0.799-0.48,1.175-0.809c0.376-0.325,0.727-0.677,1.055-1.053
			c0.325-0.375,0.619-0.71,0.881-1.005c0.85-0.914,1.643-1.861,2.377-2.842s1.429-1.992,2.083-3.038
			c0.098-0.196,0.228-0.489,0.392-0.882c0.163-0.393,0.343-0.775,0.539-1.151c0.195-0.375,0.424-0.678,0.687-0.907
			c0.261-0.228,0.554-0.276,0.881-0.146c0.294,0.131,0.351,0.475,0.172,1.029c-0.18,0.556-0.515,1.225-1.004,2.009
			c-0.491,0.784-1.071,1.634-1.74,2.548c-0.67,0.916-1.331,1.773-1.983,2.572c-0.655,0.801-1.233,1.495-1.74,2.083
			s-0.842,0.964-1.006,1.127c-0.392,0.393-0.914,0.865-1.566,1.422c-0.654,0.555-1.349,1.069-2.083,1.543s-1.494,0.825-2.278,1.053
			C182.296,211.249,181.577,211.249,180.925,211.021z M195.136,180.053c-0.458-0.229-0.809-0.563-1.055-1.004
			c-0.245-0.441-0.317-0.956-0.22-1.544c0.098-0.522,0.325-1.046,0.686-1.567c0.358-0.523,0.768-0.947,1.226-1.275
			c0.522-0.424,1.143-0.637,1.861-0.637c1.077,0,1.78,0.523,2.107,1.568c0.098,0.425,0.105,0.865,0.024,1.322
			c-0.082,0.459-0.229,0.9-0.44,1.324c-0.215,0.425-0.491,0.801-0.834,1.127s-0.71,0.572-1.104,0.734
			c-0.392,0.164-0.783,0.238-1.175,0.221C195.821,180.307,195.461,180.217,195.136,180.053z"/>
		<path fill="#173549" d="M215.488,169.615c0.36,0.066,0.596,0.196,0.711,0.393c0.114,0.195,0.171,0.475,0.171,0.833
			c-0.032,0.425-0.081,0.85-0.146,1.274c-0.066,0.424-0.214,0.816-0.442,1.176c-1.959,3.136-3.87,6.271-5.732,9.408
			c-1.242,2.091-2.541,4.141-3.896,6.148c-1.356,2.01-2.654,4.061-3.896,6.15c-0.229,0.393-0.45,0.783-0.662,1.176
			c-0.213,0.393-0.448,0.768-0.71,1.127c-0.523,0.883-1.038,1.764-1.543,2.646c-0.508,0.882-1.038,1.764-1.594,2.646
			c-0.163,0.262-0.384,0.596-0.661,1.004c-0.278,0.408-0.531,0.833-0.76,1.273c-0.228,0.441-0.384,0.874-0.465,1.3
			c-0.082,0.424-0.009,0.783,0.22,1.077c0.196,0.262,0.466,0.392,0.809,0.392s0.646-0.049,0.908-0.146
			c0.686-0.294,1.339-0.727,1.958-1.299c0.622-0.57,1.192-1.118,1.717-1.642c0.783-0.85,1.51-1.739,2.181-2.67
			c0.668-0.932,1.329-1.887,1.983-2.867c0.064-0.098,0.236-0.383,0.515-0.857c0.276-0.473,0.588-0.922,0.931-1.348
			c0.344-0.424,0.669-0.727,0.98-0.906c0.311-0.18,0.515-0.008,0.612,0.515c0.064,0.294,0.025,0.604-0.123,0.931
			c-0.146,0.327-0.327,0.662-0.538,1.005c-0.214,0.343-0.449,0.67-0.711,0.979c-0.261,0.312-0.458,0.564-0.588,0.76
			c-0.947,1.405-1.943,2.769-2.989,4.092c-1.045,1.323-2.237,2.523-3.576,3.602c-0.883,0.752-1.725,1.405-2.523,1.96
			c-0.803,0.557-1.773,0.997-2.917,1.322c-0.228,0.066-0.44,0.107-0.637,0.123c-0.195,0.018-0.407,0.025-0.638,0.025
			c-0.619-0.065-1.2-0.295-1.738-0.687c-0.539-0.392-0.923-0.882-1.151-1.47c-0.294-0.85-0.368-1.765-0.221-2.744
			c0.146-0.98,0.408-1.952,0.784-2.916c0.374-0.963,0.816-1.894,1.323-2.793c0.506-0.897,0.972-1.706,1.396-2.425
			c0.783-1.373,1.607-2.703,2.475-3.994c0.865-1.29,1.705-2.604,2.523-3.944c0.881-1.438,1.738-2.866,2.572-4.288
			c0.832-1.42,1.674-2.85,2.523-4.287c0.816-1.372,1.689-2.728,2.621-4.066c0.932-1.34,1.74-2.728,2.426-4.166
			c0.197-0.392,0.358-0.791,0.489-1.2c0.131-0.408,0.245-0.825,0.343-1.249c0.164-0.49,0.409-0.801,0.736-0.932
			c0.326-0.131,0.718-0.179,1.176-0.146c0.358,0,0.693-0.016,1.005-0.049c0.31-0.033,0.644-0.082,1.004-0.147
			c0.261-0.065,0.547-0.114,0.857-0.147C214.892,169.535,215.195,169.551,215.488,169.615z"/>
		<path fill="#173549" d="M228.591,185.884c0.393,0.425,0.604,0.931,0.638,1.519c0.031,0.588-0.033,1.127-0.196,1.617
			c-0.098,0.327-0.172,0.646-0.221,0.956s-0.123,0.612-0.221,0.906c-0.13,0.36-0.261,0.71-0.392,1.054
			c-0.13,0.343-0.263,0.694-0.392,1.054c-0.229,0.686-0.498,1.339-0.809,1.96c-0.312,0.621-0.646,1.242-1.005,1.861
			c-0.85,1.373-1.732,2.695-2.646,3.969c-0.458,0.621-0.932,1.193-1.421,1.716s-0.964,1.062-1.42,1.616
			c-0.558,0.654-1.111,1.267-1.666,1.839c-0.558,0.571-1.161,1.119-1.814,1.641c-0.358,0.262-0.693,0.507-1.004,0.734
			c-0.311,0.229-0.645,0.459-1.005,0.688c-0.587,0.424-1.192,0.808-1.812,1.15c-0.621,0.344-1.259,0.605-1.911,0.785
			c-0.653,0.18-1.315,0.262-1.984,0.244c-0.67-0.016-1.365-0.172-2.082-0.465c-0.556-0.196-0.947-0.604-1.178-1.226
			c-0.259-0.62-0.392-1.339-0.392-2.155c-0.031-0.785,0.043-1.545,0.221-2.279c0.18-0.735,0.409-1.445,0.688-2.132
			c0.276-0.686,0.604-1.355,0.979-2.008c0.376-0.654,0.744-1.324,1.103-2.01c0.229-0.393,0.448-0.791,0.662-1.201
			c0.213-0.407,0.434-0.824,0.661-1.249c0.358-0.653,0.752-1.306,1.177-1.96c0.423-0.653,0.816-1.307,1.176-1.96
			c0.588-1.144,1.077-2.286,1.471-3.431c0.162-0.457,0.351-0.881,0.562-1.273c0.213-0.393,0.579-0.62,1.104-0.686
			c0.619-0.098,1.249-0.139,1.886-0.123c0.638,0.018,1.265,0.041,1.887,0.074c0.914,0,1.274,0.44,1.077,1.322
			c-0.098,0.49-0.269,0.939-0.514,1.348c-0.246,0.409-0.466,0.842-0.661,1.299c-0.36,0.816-0.785,1.601-1.274,2.352
			c-0.49,0.752-0.964,1.503-1.421,2.254c-0.49,0.85-0.989,1.699-1.494,2.549c-0.508,0.85-1.038,1.698-1.594,2.547
			c-0.261,0.426-0.522,0.842-0.783,1.25c-0.262,0.409-0.474,0.842-0.638,1.299c-0.228,0.523-0.449,1.07-0.66,1.641
			c-0.214,0.573-0.287,1.169-0.222,1.79c0.065,0.457,0.271,0.808,0.613,1.053s0.76,0.318,1.249,0.221
			c0.947-0.195,1.862-0.662,2.744-1.396c0.882-0.735,1.6-1.494,2.156-2.278c0.294-0.425,0.595-0.834,0.906-1.226
			c0.31-0.392,0.597-0.8,0.857-1.225c0.522-0.751,1.012-1.511,1.47-2.278s0.898-1.561,1.323-2.377
			c0.784-1.502,1.404-3.021,1.862-4.557c0.131-0.424,0.261-0.85,0.392-1.274c0.131-0.424,0.213-0.865,0.245-1.323
			c0.064-0.424,0.057-0.833-0.024-1.225c-0.082-0.393-0.139-0.784-0.172-1.176c0-0.262,0.074-0.547,0.221-0.857
			c0.147-0.311,0.302-0.564,0.465-0.76c0.36-0.359,0.824-0.596,1.397-0.711c0.571-0.114,1.085-0.024,1.543,0.27
			c0.064,0.066,0.115,0.106,0.148,0.123C228.477,185.778,228.525,185.818,228.591,185.884z"/>
		<path fill="#173549" d="M226.749,211.069l-0.098-0.049c-0.588-0.195-1.054-0.514-1.396-0.955
			c-0.344-0.441-0.597-0.938-0.759-1.494c-0.165-0.555-0.253-1.135-0.271-1.74c-0.016-0.604,0.008-1.167,0.074-1.689
			c0.098-0.784,0.276-1.601,0.539-2.45c0.359-1.078,0.833-2.123,1.421-3.137c0.883-1.47,1.83-2.873,2.841-4.214
			c1.014-1.339,2.173-2.58,3.48-3.724c0.358-0.326,0.734-0.637,1.126-0.932c0.392-0.293,0.801-0.588,1.226-0.881
			c0.62-0.393,1.249-0.768,1.887-1.128c0.637-0.358,1.315-0.669,2.034-0.931c0.587-0.229,1.183-0.457,1.787-0.686
			s1.233-0.344,1.888-0.344c0.293,0.033,0.595,0.066,0.906,0.098c0.31,0.033,0.612,0.099,0.906,0.196
			c0.458,0.131,0.775,0.392,0.955,0.784c0.179,0.392,0.399,0.768,0.662,1.127c-0.033-0.064,0.041-0.236,0.221-0.515
			c0.179-0.276,0.302-0.448,0.368-0.515c0.194-0.326,0.489-0.57,0.881-0.734c0.49-0.196,1.036-0.277,1.643-0.245
			c0.604,0.032,1.183,0.032,1.738,0c0.261,0,0.522-0.057,0.785-0.172c0.261-0.114,0.521-0.089,0.783,0.073
			c0.163,0.099,0.261,0.229,0.294,0.393c0.031,0.164,0.016,0.318-0.049,0.465c-0.066,0.147-0.147,0.303-0.245,0.467
			c-0.098,0.163-0.18,0.293-0.245,0.391c-1.014,1.504-1.961,3.031-2.842,4.582c-0.883,1.552-1.781,3.111-2.695,4.68
			c-0.263,0.457-0.523,0.915-0.784,1.372c-0.262,0.458-0.538,0.915-0.833,1.372c-0.588,0.947-1.209,1.928-1.862,2.939
			c-0.653,1.014-1.11,2.091-1.372,3.234c-0.065,0.196-0.098,0.425-0.098,0.687s0.131,0.457,0.393,0.588
			c0.196,0.098,0.424,0.105,0.686,0.024c0.261-0.081,0.522-0.212,0.785-0.392c0.26-0.18,0.505-0.368,0.734-0.564
			c0.229-0.195,0.407-0.343,0.538-0.44c0.719-0.687,1.405-1.372,2.06-2.059c0.652-0.686,1.306-1.404,1.958-2.156
			c0.556-0.652,1.096-1.306,1.618-1.959c0.521-0.654,1.013-1.34,1.471-2.059c0.064-0.098,0.154-0.236,0.269-0.416
			c0.113-0.18,0.246-0.326,0.392-0.441c0.148-0.114,0.295-0.18,0.44-0.195c0.148-0.017,0.287,0.072,0.417,0.27
			c0.098,0.163,0.123,0.335,0.074,0.514c-0.049,0.18-0.131,0.359-0.245,0.539c-0.115,0.18-0.237,0.344-0.367,0.49
			c-0.132,0.146-0.245,0.27-0.343,0.367c-0.327,0.393-0.637,0.801-0.931,1.225c-0.295,0.426-0.622,0.834-0.98,1.226
			c-0.229,0.327-0.466,0.638-0.711,0.931c-0.246,0.295-0.499,0.588-0.76,0.883c-0.587,0.686-1.184,1.364-1.787,2.032
			c-0.606,0.671-1.218,1.332-1.838,1.985c-0.427,0.458-0.956,0.955-1.594,1.495c-0.637,0.538-1.315,0.979-2.032,1.322
			c-0.72,0.344-1.438,0.531-2.157,0.563c-0.719,0.033-1.372-0.245-1.96-0.833c-0.556-0.521-0.906-1.159-1.053-1.91
			c-0.147-0.752-0.14-1.486,0.023-2.206c0.066-0.163,0.131-0.325,0.197-0.489c0.064-0.164,0.08-0.326,0.049-0.49
			c-0.164,0.033-0.318,0.139-0.466,0.318c-0.146,0.18-0.287,0.336-0.417,0.465c-0.262,0.229-0.497,0.459-0.71,0.687
			c-0.214,0.229-0.434,0.474-0.662,0.735c-1.013,1.078-2.155,1.977-3.43,2.695c-0.654,0.392-1.389,0.693-2.206,0.906
			C228.284,211.258,227.501,211.267,226.749,211.069z M231.258,207.64c0.883-0.424,1.674-0.971,2.376-1.641
			c0.703-0.67,1.363-1.38,1.985-2.132c1.044-1.307,2.04-2.638,2.989-3.994c0.946-1.354,1.829-2.768,2.646-4.238
			c0.358-0.652,0.718-1.307,1.078-1.96c0.358-0.653,0.668-1.339,0.931-2.058c0.131-0.424,0.236-0.883,0.318-1.372
			c0.082-0.49-0.023-0.931-0.318-1.323c-0.359-0.457-0.833-0.62-1.42-0.49c-0.589,0.131-1.096,0.312-1.52,0.539
			c-1.178,0.654-2.229,1.553-3.161,2.695c-0.932,1.144-1.789,2.254-2.572,3.332c-0.458,0.588-0.883,1.193-1.274,1.812
			c-0.392,0.621-0.801,1.242-1.226,1.862c-0.425,0.621-0.816,1.258-1.175,1.911c-0.36,0.654-0.719,1.323-1.078,2.01
			c-0.132,0.293-0.286,0.62-0.465,0.979c-0.182,0.36-0.336,0.736-0.466,1.128c-0.131,0.393-0.221,0.776-0.27,1.151
			c-0.05,0.376,0.007,0.728,0.172,1.054c0.26,0.556,0.604,0.874,1.028,0.955C230.261,207.942,230.734,207.868,231.258,207.64z"/>
	</g>
</g>
</svg>
